<?xml version="1.0" encoding="UTF-8" standalone="no"?>
<!-- Created with Inkscape (http://www.inkscape.org/) -->

<svg
   xmlns:dc="http://purl.org/dc/elements/1.1/"
   xmlns:cc="http://creativecommons.org/ns#"
   xmlns:rdf="http://www.w3.org/1999/02/22-rdf-syntax-ns#"
   xmlns:svg="http://www.w3.org/2000/svg"
   xmlns="http://www.w3.org/2000/svg"
   xmlns:sodipodi="http://sodipodi.sourceforge.net/DTD/sodipodi-0.dtd"
   xmlns:inkscape="http://www.inkscape.org/namespaces/inkscape"
   width="135.44391mm"
   height="135.44391mm"
   viewBox="0 0 135.44391 135.44391"
   version="1.1"
   id="svg8"
   inkscape:version="0.92.5 (2060ec1f9f, 2020-04-08)"
   sodipodi:docname="icon.svg">
  <defs
     id="defs2" />
  <sodipodi:namedview
     id="base"
     pagecolor="#ffffff"
     bordercolor="#666666"
     borderopacity="1.0"
     inkscape:pageopacity="0.0"
     inkscape:pageshadow="2"
     inkscape:zoom="1.2071563"
     inkscape:cx="235.44487"
     inkscape:cy="302.14561"
     inkscape:document-units="mm"
     inkscape:current-layer="layer1"
     showgrid="false"
     inkscape:window-width="1920"
     inkscape:window-height="1011"
     inkscape:window-x="0"
     inkscape:window-y="0"
     inkscape:window-maximized="1"
     showguides="true"
     inkscape:guide-bbox="true"
     inkscape:snap-nodes="false"
     fit-margin-top="5"
     fit-margin-left="5"
     fit-margin-bottom="5"
     fit-margin-right="5">
    <sodipodi:guide
       position="63.491939,97.384573"
       orientation="0,1"
       id="guide4693"
       inkscape:locked="false" />
  </sodipodi:namedview>
  <metadata
     id="metadata5">
    <rdf:RDF>
      <cc:Work
         rdf:about="">
        <dc:format>image/svg+xml</dc:format>
        <dc:type
           rdf:resource="http://purl.org/dc/dcmitype/StillImage" />
        <dc:title />
      </cc:Work>
    </rdf:RDF>
  </metadata>
  <g
     inkscape:label="レイヤー 1"
     inkscape:groupmode="layer"
     id="layer1"
     transform="translate(-38.323703,-29.536489)">
    <path
       style="fill:#ff36cc;fill-opacity:1;stroke:#000000;stroke-width:2.5;stroke-miterlimit:4;stroke-dasharray:none;stroke-opacity:1"
       d="M 106.0454,35.786489 A 61.471989,61.471989 0 0 0 44.573703,97.258705 61.471989,61.471989 0 0 0 106.0454,158.7304 61.471989,61.471989 0 0 0 167.51761,97.258705 61.471989,61.471989 0 0 0 106.0454,35.786489 Z m 0,48.454407 A 13.017432,13.017432 0 0 1 119.06321,97.258705 13.017432,13.017432 0 0 1 106.0454,110.276 13.017432,13.017432 0 0 1 93.028113,97.258705 13.017432,13.017432 0 0 1 106.0454,84.240896 Z"
       id="path10"
       inkscape:connector-curvature="0" />
    <path
       style="fill:#ffba36;fill-opacity:1;stroke:#000000;stroke-width:9.44881916;stroke-miterlimit:4;stroke-dasharray:none;stroke-opacity:1"
       d="m 286.23242,486.92383 c -15.86804,0 -28.64453,10.74516 -28.64453,24.08984 v 39.43555 c 40.86755,32.03234 91.28769,49.45127 143.21289,49.47656 51.95499,-0.0951 102.3789,-17.6017 143.21484,-49.72266 v -39.18945 c 0,-13.34468 -12.77453,-24.08984 -28.64257,-24.08984 -15.86805,0 -28.64258,10.74516 -28.64258,24.08984 v 10.11307 15.83008 c 0,13.34464 -12.77454,24.08789 -28.64258,24.08789 -15.86804,0 -28.64258,-10.74325 -28.64258,-24.08789 v -15.83008 -10.11307 c 0,-13.34468 -12.77453,-24.08984 -28.64258,-24.08984 -15.86804,0 -28.64257,10.74516 -28.64257,24.08984 v 10.11307 15.83008 c 0,13.34464 -12.77454,24.08789 -28.64258,24.08789 -15.86808,0 -28.64258,-10.74325 -28.64258,-24.08789 v -15.83008 -10.11307 c 0,-13.34468 -12.77453,-24.08984 -28.64258,-24.08984 z"
       transform="scale(0.26458333)"
       id="rect4529"
       inkscape:connector-curvature="0"
       sodipodi:nodetypes="sscccssscssscssscssscss" />
    <rect
       style="fill:#ecffff;fill-opacity:1;stroke:none;stroke-width:2.5;stroke-miterlimit:4;stroke-dasharray:none;stroke-opacity:1"
       id="rect4588"
       width="3.0621221"
       height="14.03474"
       x="-112.04182"
       y="4.0106001"
       ry="1.5310611"
       transform="rotate(-115.72156)" />
    <rect
       transform="rotate(-37.27656)"
       ry="1.5310611"
       y="111.83736"
       x="2.8148303"
       height="14.03474"
       width="3.0621221"
       id="rect4599"
       style="fill:#ecffff;fill-opacity:1;stroke:none;stroke-width:2.5;stroke-miterlimit:4;stroke-dasharray:none;stroke-opacity:1" />
    <rect
       transform="rotate(161.70476)"
       ry="1.5310611"
       y="-161.93375"
       x="-108.78143"
       height="14.03474"
       width="3.0621221"
       id="rect4601"
       style="fill:#ecffff;fill-opacity:1;stroke:none;stroke-width:2.5;stroke-miterlimit:4;stroke-dasharray:none;stroke-opacity:1" />
    <g
       id="g4727"
       transform="translate(2.3368746,-3.0674362)">
      <path
         d="m 72.875957,53.273493 c -4.719586,0.820831 -8.654561,4.873889 -7.930297,9.03823 0.423825,2.436891 2.164674,3.309983 4.63243,2.88079 -0.630351,-0.335278 -1.655011,-1.11046 -2.030558,-3.269753 -0.515031,-2.961316 0.729563,-5.307028 3.449451,-6.479246 l 3.894932,22.394901 c 0.498936,2.868761 -0.80333,4.334686 -2.376525,4.6083 -1.449806,0.252151 -3.163834,-0.466718 -3.458905,-2.163298 -0.262883,-1.511512 0.517673,-2.505329 1.597316,-2.6931 0.586095,-0.101937 1.276799,0.03216 1.923249,0.460012 -0.02681,-0.154116 -0.0228,-0.313831 -0.04427,-0.43721 -0.321894,-1.850822 -1.396175,-2.363137 -3.061911,-2.07343 -2.776226,0.482844 -3.2188,2.689067 -2.913002,4.447337 0.461386,2.65285 2.383297,4.384287 6.362558,3.692211 4.84297,-0.842292 5.844806,-4.03562 5.029338,-8.72436 l -3.80909,-21.901345 z"
         style="font-style:normal;font-variant:normal;font-weight:normal;font-stretch:normal;font-size:14.11111069px;line-height:1.25;font-family:'Lobster Two';-inkscape-font-specification:'Lobster Two';letter-spacing:0px;word-spacing:0px;fill:#ffffff;fill-opacity:1;stroke:none;stroke-width:0.58706278"
         id="path4650"
         inkscape:connector-curvature="0" />
      <path
         d="m 85.651878,68.323524 -1.195264,5.913647 c -0.256927,1.271163 -1.142771,1.85912 -1.842831,1.717623 -0.644791,-0.130329 -1.01227,-0.683969 -0.770235,-1.881448 l 1.266011,-6.263673 -1.842261,-0.372356 -1.306971,6.466332 c -0.424485,2.100168 0.583472,3.090085 2.020434,3.380522 0.829016,0.16756 1.766016,-0.199132 2.468615,-1.30352 0.0017,0.939948 0.313198,1.865779 1.436975,2.092916 0.810597,0.163838 2.075089,0.07427 3.249604,-2.89061 l -0.681638,-0.137773 c -0.544434,1.270574 -1.14277,1.85912 -1.732296,1.739965 -0.79217,-0.160114 -0.590707,-1.346605 -0.493895,-1.825594 l 1.26601,-6.263673 z"
         style="font-style:normal;font-variant:normal;font-weight:normal;font-stretch:normal;font-size:14.11111069px;line-height:1.25;font-family:'Lobster Two';-inkscape-font-specification:'Lobster Two';letter-spacing:0px;word-spacing:0px;fill:#ffffff;fill-opacity:1;stroke:none;stroke-width:0.35240877"
         id="path4652"
         inkscape:connector-curvature="0" />
      <path
         d="m 94.752744,66.42948 0.155836,1.127074 c -0.5793,-0.901001 -1.604462,-1.046343 -2.355836,-0.942408 -3.193364,0.441716 -3.964364,4.209655 -3.577849,7.003842 0.522873,3.780382 2.824572,4.849933 4.726498,4.586841 1.127077,-0.155838 1.96161,-0.869597 2.434944,-1.772617 l 0.279396,2.019308 c -1.438542,0.8451 -2.845344,2.092619 -2.621232,3.712785 0.175453,1.267942 1.257531,2.171177 2.807248,1.956805 1.57319,-0.217695 2.78566,-1.486106 2.379666,-4.421183 l -0.207888,-1.502753 c 2.002063,-0.923047 2.954013,-1.652981 2.985883,-5.055437 l -0.86878,0.120239 c 0.035,2.675304 -0.70881,3.35251 -2.234032,4.089956 L 97.100784,66.104754 Z m -0.711122,9.909608 c -1.361869,0.188427 -2.276397,-0.714101 -2.623939,-3.226523 -0.289042,-2.089759 0.09277,-5.038099 2.112105,-5.317429 0.704415,-0.09744 1.245487,0.35418 1.525019,0.818033 l 0.691827,5.00137 c 0.191585,1.38535 -0.765796,2.594628 -1.705016,2.724549 z m 1.945095,6.622742 c -0.704414,0.09747 -1.192024,-0.313704 -1.289468,-1.018113 -0.120238,-0.868789 0.396125,-1.634181 1.848402,-2.552961 l 0.227345,1.643645 c 0.152679,1.10358 0.05899,1.810503 -0.786294,1.92743 z"
         style="font-style:normal;font-variant:normal;font-weight:normal;font-stretch:normal;font-size:14.11111069px;line-height:1.25;font-family:'Lobster Two';-inkscape-font-specification:'Lobster Two';letter-spacing:0px;word-spacing:0px;fill:#ffffff;fill-opacity:1;stroke:none;stroke-width:0.444453"
         id="path4654"
         inkscape:connector-curvature="0" />
      <path
         d="m 107.57764,66.738676 -0.14353,0.964636 c -0.25924,-0.880781 -1.06742,-1.247521 -1.7105,-1.343205 -2.73314,-0.406652 -4.27585,2.506663 -4.63166,4.898157 -0.48142,3.235557 1.15385,4.670277 2.78168,4.912476 0.96463,0.143524 1.82315,-0.242285 2.43023,-0.870909 l -0.25715,1.728299 c -1.38701,0.34826 -2.84495,1.03516 -3.05127,2.42183 -0.16147,1.085216 0.51082,2.089073 1.83721,2.286419 1.34646,0.200337 2.64962,-0.550677 3.02339,-3.062758 l 0.19135,-1.286181 c 1.86933,-0.276488 2.82834,-0.647343 3.67497,-3.438272 l -0.74358,-0.11064 c -0.61624,2.208966 -1.39139,2.586623 -2.82375,2.825428 l 1.43226,-9.626274 z m -2.97435,7.979465 c -1.16561,-0.173425 -1.70022,-1.136257 -1.38027,-3.286596 0.26611,-1.788585 1.2911,-4.121611 3.01941,-3.864461 0.6029,0.0897 0.93905,0.591638 1.05714,1.040573 l -0.63691,4.280586 c -0.17642,1.18569 -1.2555,1.949502 -2.05937,1.829898 z m 0.003,5.916401 c -0.60291,-0.0897 -0.90483,-0.545454 -0.81514,-1.148348 0.11066,-0.743587 0.71986,-1.248644 2.13594,-1.65419 l -0.2093,1.406764 c -0.14056,0.944538 -0.38803,1.503417 -1.1115,1.395774 z"
         style="font-style:normal;font-variant:normal;font-weight:normal;font-stretch:normal;font-size:14.11111069px;line-height:1.25;font-family:'Lobster Two';-inkscape-font-specification:'Lobster Two';letter-spacing:0px;word-spacing:0px;fill:#ffffff;fill-opacity:1;stroke:none;stroke-width:0.38095942"
         id="path4656"
         inkscape:connector-curvature="0" />
      <path
         d="m 111.14023,58.746029 1.26458,15.465268 c 0.15026,1.837735 0.78458,4.044409 2.58195,3.823757 0.85964,-0.105529 2.08791,-0.770332 2.28792,-5.563867 l -0.72285,0.08874 c -0.12669,2.071607 -0.52959,3.177636 -1.15463,3.254427 -0.84009,0.103155 -1.02713,-1.701536 -1.08725,-2.436638 l -1.2484,-15.267362 z"
         style="font-style:normal;font-variant:normal;font-weight:normal;font-stretch:normal;font-size:14.11111069px;line-height:1.25;font-family:'Lobster Two';-inkscape-font-specification:'Lobster Two';letter-spacing:0px;word-spacing:0px;fill:#ffffff;fill-opacity:1;stroke:none;stroke-width:0.44287649"
         id="path4658"
         inkscape:connector-curvature="0" />
      <path
         d="m 118.80589,68.636498 -0.85867,6.991579 c -0.15458,1.258866 0.10068,2.862953 1.88236,3.081778 0.85219,0.104657 2.15384,-0.08933 3.1321,-3.252328 l -0.71661,-0.088 c -0.46176,1.35876 -1.03393,2.015888 -1.6537,1.939777 -0.83279,-0.102288 -0.71928,-1.346538 -0.65748,-1.85009 l 0.80872,-6.584853 z m -0.006,-2.831694 c -0.0879,0.716607 0.40466,1.347212 1.12126,1.435216 0.69722,0.08563 1.36656,-0.402286 1.45459,-1.118874 0.0857,-0.6972 -0.44104,-1.371348 -1.13827,-1.456972 -0.71658,-0.08802 -1.35197,0.443406 -1.43758,1.14063 z"
         style="font-style:normal;font-variant:normal;font-weight:normal;font-stretch:normal;font-size:14.11111069px;line-height:1.25;font-family:'Lobster Two';-inkscape-font-specification:'Lobster Two';letter-spacing:0px;word-spacing:0px;fill:#ffffff;fill-opacity:1;stroke:none;stroke-width:0.36586422"
         id="path4660"
         inkscape:connector-curvature="0" />
      <path
         d="m 122.85303,68.156716 1.634,10.214874 2.04298,-0.326798 -1.04576,-6.537515 c 0.13327,-1.655618 0.64485,-2.386987 1.48246,-2.520976 0.69461,-0.111113 1.3794,0.240313 1.66045,1.997264 0.0884,0.551603 0.42569,3.053837 0.50739,3.564583 0.26469,1.654813 1.17418,3.01791 2.89027,2.743401 0.85805,-0.13725 2.12717,-0.717409 2.1943,-4.227225 l -0.75588,0.120916 c -0.0786,1.604956 -0.48141,2.360827 -1.11474,2.462135 -0.89892,0.143789 -1.13176,-1.180871 -1.20039,-1.609892 -0.16993,-1.062351 -0.27934,-2.53248 -0.43292,-3.492676 -0.25165,-1.573097 -0.91186,-3.604641 -3.38385,-3.209216 -0.69463,0.111112 -1.62866,0.428146 -2.18686,2.046968 l -0.24838,-1.552657 z"
         style="font-style:normal;font-variant:normal;font-weight:normal;font-stretch:normal;font-size:14.11111069px;line-height:1.25;font-family:'Lobster Two';-inkscape-font-specification:'Lobster Two';letter-spacing:0px;word-spacing:0px;fill:#ffffff;fill-opacity:1;stroke:none;stroke-width:0.38792783"
         id="path4662"
         inkscape:connector-curvature="0" />
      <path
         d="m 141.60891,68.082163 -0.36268,0.893367 c -0.0437,-0.906656 -0.73487,-1.447345 -1.33043,-1.689129 -2.53125,-1.027611 -4.69233,1.411991 -5.59148,3.626802 -1.21651,2.996518 0.0203,4.756049 1.52788,5.368078 0.89338,0.362688 1.80813,0.192065 2.53788,-0.270454 l -0.6498,1.600616 c -1.41378,0.0114 -2.97463,0.331619 -3.49599,1.615844 -0.40801,1.005042 0.004,2.126206 1.23238,2.624897 1.24701,0.506244 2.67407,0.08835 3.61856,-2.238146 l 4.37487,-10.776285 z m -4.71716,6.973505 c -1.07948,-0.438241 -1.36878,-1.487902 -0.56028,-3.479377 0.67245,-1.656447 2.20092,-3.659147 3.80154,-3.009342 0.55837,0.226681 0.76437,0.787268 0.7732,1.246115 l -1.60941,3.964341 c -0.4458,1.098093 -1.66057,1.580502 -2.40505,1.278263 z m -1.37578,5.685131 c -0.55836,-0.226675 -0.74225,-0.734918 -0.51559,-1.29327 0.27958,-0.68865 0.98261,-1.031938 2.43767,-1.091602 l -0.52892,1.302835 c -0.35511,0.874757 -0.72315,1.35405 -1.39316,1.082037 z"
         style="font-style:normal;font-variant:normal;font-weight:normal;font-stretch:normal;font-size:14.11111069px;line-height:1.25;font-family:'Lobster Two';-inkscape-font-specification:'Lobster Two';letter-spacing:0px;word-spacing:0px;fill:#ffffff;fill-opacity:1;stroke:none;stroke-width:0.37663448"
         id="path4664"
         inkscape:connector-curvature="0" />
    </g>
    <g
       id="g4735"
       style="fill:#ffffff;fill-opacity:1"
       transform="translate(0.79115008)">
      <path
         d="m 78.017017,105.26506 -3.769844,20.48242 3.451018,0.63517 0.264654,-1.43792 c 1.458305,1.58987 2.790366,2.42968 4.068522,2.66494 3.546876,0.65281 7.25845,-4.97402 8.369995,-11.0133 1.140948,-6.19904 -0.655308,-12.7735 -8.80354,-14.2732 -5.751694,-1.05861 -10.750228,1.68842 -11.479496,5.65069 -0.517545,2.81194 0.880188,4.19242 3.46845,4.66879 -0.446569,-0.44558 -1.539858,-1.50575 -1.08701,-3.96618 0.764556,-4.15401 4.572561,-5.99691 8.438976,-5.28529 5.559971,1.02333 7.106882,4.64469 5.65423,12.53728 -0.852778,4.63334 -3.060939,9.81003 -6.352188,9.20426 -0.67103,-0.1235 -1.396747,-0.48837 -2.083857,-1.24248 l 3.399324,-18.46931 z"
         style="font-style:normal;font-variant:normal;font-weight:normal;font-stretch:normal;font-size:14.11111069px;line-height:1.25;font-family:'Lobster Two';-inkscape-font-specification:'Lobster Two';letter-spacing:0px;word-spacing:0px;fill:#ffffff;fill-opacity:1;stroke:none;stroke-width:0.60919815"
         id="path4666"
         inkscape:connector-curvature="0" />
      <path
         d="m 94.534879,113.90841 c -2.993586,0.39355 -3.469268,3.72473 -3.162305,6.05974 0.451261,3.43264 2.567124,4.39293 4.343312,4.15943 2.155391,-0.28334 3.152961,-2.42442 2.72269,-5.69741 -0.03673,-0.2794 -0.09338,-0.55619 -0.127484,-0.81563 1.191174,-0.35962 2.432268,-1.11153 2.838328,-2.03791 l -0.37019,-0.49949 c -0.56938,0.76513 -1.479068,1.41258 -2.576738,1.55688 l -0.11979,0.0157 c -0.49294,-1.7421 -1.452301,-3.01683 -3.547819,-2.74135 z m 1.340842,8.65519 c -0.898078,0.11805 -2.017178,-0.36419 -2.35825,-2.95864 -0.257112,-1.9558 0.02415,-4.44935 1.680596,-4.66712 0.598718,-0.0787 1.159581,0.1724 1.599592,1.04846 -0.516275,0.0881 -0.766805,0.34443 -0.685472,0.96311 0.0892,0.67855 0.445242,0.91597 1.208879,0.85619 0.0409,0.15704 0.06189,0.31669 0.08288,0.47636 0.333199,2.53457 -0.131252,4.09799 -1.528266,4.28164 z"
         style="font-style:normal;font-variant:normal;font-weight:normal;font-stretch:normal;font-size:14.11111069px;line-height:1.25;font-family:'Lobster Two';-inkscape-font-specification:'Lobster Two';letter-spacing:0px;word-spacing:0px;fill:#ffffff;fill-opacity:1;stroke:none;stroke-width:0.37741894"
         id="path4668"
         inkscape:connector-curvature="0" />
      <path
         d="m 101.80186,113.67029 -0.77383,10.55087 2.11018,0.15477 0.49525,-6.75256 c 0.52165,-1.61653 1.20269,-2.22427 2.06786,-2.16081 0.71746,0.0526 1.31646,0.56329 1.18336,2.37803 -0.0418,0.56975 -0.29386,3.13954 -0.33256,3.66709 -0.12536,1.70924 0.45957,3.27965 2.23212,3.40964 0.88628,0.065 2.28575,-0.21422 3.17726,-3.69181 l -0.78077,-0.0572 c -0.45525,1.57898 -1.03386,2.23664 -1.68802,2.18866 -0.92848,-0.0681 -0.84899,-1.44126 -0.81648,-1.88439 0.0805,-1.09729 0.31702,-2.58623 0.38976,-3.57802 0.11917,-1.62484 -0.0606,-3.80197 -2.61391,-3.98924 -0.71746,-0.0527 -1.72162,0.0434 -2.65757,1.52352 l 0.11762,-1.60373 z"
         style="font-style:normal;font-variant:normal;font-weight:normal;font-stretch:normal;font-size:14.11111069px;line-height:1.25;font-family:'Lobster Two';-inkscape-font-specification:'Lobster Two';letter-spacing:0px;word-spacing:0px;fill:#ffffff;fill-opacity:1;stroke:none;stroke-width:0.39672118"
         id="path4670"
         inkscape:connector-curvature="0" />
      <path
         d="m 116.97922,113.78137 0.84831,6.72698 c 0.18235,1.446 -0.5502,2.38996 -1.34654,2.49039 -0.73348,0.0925 -1.32344,-0.36533 -1.49522,-1.72751 l -0.89854,-7.12516 -2.09565,0.26428 0.9276,7.35568 c 0.30128,2.38901 1.72989,3.08175 3.36449,2.87562 0.94304,-0.11892 1.80944,-0.84558 2.16157,-2.27383 0.33906,1.00045 1.00285,1.87477 2.28119,1.71356 0.92208,-0.11628 2.23668,-0.66527 2.42402,-4.24428 l -0.77538,0.0978 c -0.12407,1.54851 -0.55021,2.38996 -1.22081,2.47453 -0.90112,0.11364 -1.11217,-1.22228 -1.18088,-1.76716 l -0.89853,-7.12516 z"
         style="font-style:normal;font-variant:normal;font-weight:normal;font-stretch:normal;font-size:14.11111069px;line-height:1.25;font-family:'Lobster Two';-inkscape-font-specification:'Lobster Two';letter-spacing:0px;word-spacing:0px;fill:#ffffff;fill-opacity:1;stroke:none;stroke-width:0.3960444"
         id="path4672"
         inkscape:connector-curvature="0" />
      <path
         d="m 125.10276,112.14511 -0.34446,2.65211 -0.65341,-0.0849 -0.0874,0.67262 0.65341,0.0849 -0.81372,6.26512 c -0.16473,1.26839 0.0609,2.84155 1.90581,3.08117 0.88403,0.11481 2.19737,-0.0664 3.45981,-3.16598 l -0.71106,-0.0923 c -0.54738,1.3555 -1.30986,1.95999 -2.00171,1.87013 -0.86482,-0.11232 -0.756,-1.25118 -0.67862,-1.84695 l 0.7613,-5.86154 1.4798,0.1922 0.0874,-0.67262 -1.4798,-0.1922 0.3794,-2.92116 z"
         style="font-style:normal;font-variant:normal;font-weight:normal;font-stretch:normal;font-size:14.11111069px;line-height:1.25;font-family:'Lobster Two';-inkscape-font-specification:'Lobster Two';letter-spacing:0px;word-spacing:0px;fill:#ffffff;fill-opacity:1;stroke:none;stroke-width:0.36336669"
         id="path4674"
         inkscape:connector-curvature="0" />
      <path
         d="m 131.27138,112.36332 c 0.13089,2.41491 -0.4377,4.96458 -0.90935,7.49901 -0.44313,0.34298 -0.72831,1.0588 -0.59493,1.90765 0.24768,1.57647 1.34005,3.46754 4.17766,3.02171 1.38244,-0.21721 3.62587,-1.4395 3.24863,-3.84056 -0.40011,-2.54657 -1.01715,-3.46854 -3.54866,-9.45773 z m 3.30926,8.72495 c 0.18671,1.18839 -0.41234,1.8044 -1.43099,1.96444 -1.06714,0.16767 -1.82485,-0.38429 -2.24647,-1.48607 0.23213,0.21204 0.46564,0.27477 0.70818,0.23666 0.38805,-0.061 0.72273,-0.46149 0.62748,-1.06781 -0.0838,-0.53356 -0.37972,-0.83501 -0.70123,-0.9833 0.21074,-1.82242 0.68681,-3.53746 0.59884,-5.36267 1.56041,4.07903 2.13173,4.71 2.44419,6.69875 z"
         style="font-style:normal;font-variant:normal;font-weight:normal;font-stretch:normal;font-size:14.11111069px;line-height:1.25;font-family:'Lobster Two';-inkscape-font-specification:'Lobster Two';letter-spacing:0px;word-spacing:0px;fill:#ffffff;fill-opacity:1;stroke:none;stroke-width:0.4603245"
         id="path4676"
         inkscape:connector-curvature="0" />
    </g>
    <rect
       transform="rotate(166.48884)"
       ry="1.5310611"
       y="-124.48742"
       x="-106.38611"
       height="14.03474"
       width="3.0621221"
       id="rect4705"
       style="fill:#ecffff;fill-opacity:1;stroke:none;stroke-width:2.5;stroke-miterlimit:4;stroke-dasharray:none;stroke-opacity:1" />
    <rect
       style="fill:#ecffff;fill-opacity:1;stroke:none;stroke-width:2.5;stroke-miterlimit:4;stroke-dasharray:none;stroke-opacity:1"
       id="rect4707"
       width="3.0621221"
       height="14.03474"
       x="-168.15308"
       y="54.744061"
       ry="1.5310611"
       transform="rotate(-127.95685)" />
    <rect
       transform="rotate(-174.76915)"
       ry="1.5310611"
       y="-120.74878"
       x="-70.934662"
       height="14.03474"
       width="3.0621221"
       id="rect4709"
       style="fill:#ecffff;fill-opacity:1;stroke:none;stroke-width:2.5;stroke-miterlimit:4;stroke-dasharray:none;stroke-opacity:1" />
    <path
       style="fill:#741157;fill-opacity:0.18181817;stroke:none;stroke-width:9.44881916;stroke-miterlimit:4;stroke-dasharray:none;stroke-opacity:1"
       d="m 476.31055,148.16211 c 71.25295,41.58391 115.11008,117.83434 115.22656,200.33398 -6e-4,128.31503 -104.02091,232.33446 -232.33594,232.33399 -25.70989,-0.094 -51.2259,-4.45467 -75.50781,-12.9043 35.50988,20.85698 75.92544,31.90067 117.10742,32 128.31503,4.7e-4 232.33533,-104.01895 232.33594,-232.33398 -0.12494,-99.10504 -63.10104,-187.2206 -156.82617,-219.42969 z"
       id="path4737"
       inkscape:connector-curvature="0"
       sodipodi:nodetypes="ccccccc"
       transform="scale(0.26458333)" />
  </g>
</svg>
