<?xml version="1.0" encoding="UTF-8" standalone="no"?>
<!-- Created with Inkscape (http://www.inkscape.org/) -->

<svg
   xmlns:dc="http://purl.org/dc/elements/1.1/"
   xmlns:cc="http://creativecommons.org/ns#"
   xmlns:rdf="http://www.w3.org/1999/02/22-rdf-syntax-ns#"
   xmlns:svg="http://www.w3.org/2000/svg"
   xmlns="http://www.w3.org/2000/svg"
   xmlns:sodipodi="http://sodipodi.sourceforge.net/DTD/sodipodi-0.dtd"
   xmlns:inkscape="http://www.inkscape.org/namespaces/inkscape"
   width="135.44391mm"
   height="135.44391mm"
   viewBox="0 0 135.44391 135.44391"
   version="1.1"
   id="svg8"
   inkscape:version="0.92.5 (2060ec1f9f, 2020-04-08)"
   sodipodi:docname="icon.svg">
  <defs
     id="defs2" />
  <sodipodi:namedview
     id="base"
     pagecolor="#ffffff"
     bordercolor="#666666"
     borderopacity="1.0"
     inkscape:pageopacity="0.0"
     inkscape:pageshadow="2"
     inkscape:zoom="1.0368618"
     inkscape:cx="302.6527"
     inkscape:cy="228.61911"
     inkscape:document-units="mm"
     inkscape:current-layer="layer1"
     showgrid="false"
     inkscape:window-width="1920"
     inkscape:window-height="1011"
     inkscape:window-x="0"
     inkscape:window-y="0"
     inkscape:window-maximized="1"
     showguides="true"
     inkscape:guide-bbox="true"
     inkscape:snap-nodes="false"
     fit-margin-top="5"
     fit-margin-left="5"
     fit-margin-bottom="5"
     fit-margin-right="5">
    <sodipodi:guide
       position="63.491939,97.384573"
       orientation="0,1"
       id="guide4693"
       inkscape:locked="false" />
  </sodipodi:namedview>
  <metadata
     id="metadata5">
    <rdf:RDF>
      <cc:Work
         rdf:about="">
        <dc:format>image/svg+xml</dc:format>
        <dc:type
           rdf:resource="http://purl.org/dc/dcmitype/StillImage" />
        <dc:title></dc:title>
      </cc:Work>
    </rdf:RDF>
  </metadata>
  <g
     inkscape:label="レイヤー 1"
     inkscape:groupmode="layer"
     id="layer1"
     transform="translate(-38.323703,-29.536489)">
    <path
       style="fill:#ff36cc;fill-opacity:1;stroke:#000000;stroke-width:2.5;stroke-miterlimit:4;stroke-dasharray:none;stroke-opacity:1"
       d="M 106.0454,35.786489 A 61.471989,61.471989 0 0 0 44.573703,97.258705 61.471989,61.471989 0 0 0 106.0454,158.7304 61.471989,61.471989 0 0 0 167.51761,97.258705 61.471989,61.471989 0 0 0 106.0454,35.786489 Z m 0,48.454407 A 13.017432,13.017432 0 0 1 119.06321,97.258705 13.017432,13.017432 0 0 1 106.0454,110.276 13.017432,13.017432 0 0 1 93.028113,97.258705 13.017432,13.017432 0 0 1 106.0454,84.240896 Z"
       id="path10"
       inkscape:connector-curvature="0" />
    <path
       style="fill:#ffba36;fill-opacity:1;stroke:#000000;stroke-width:9.44881916;stroke-miterlimit:4;stroke-dasharray:none;stroke-opacity:1"
       d="m 286.23242,486.92383 c -15.86804,0 -28.64453,10.74516 -28.64453,24.08984 v 39.43555 c 40.86755,32.03234 91.28769,49.45127 143.21289,49.47656 51.95499,-0.0951 102.3789,-17.6017 143.21484,-49.72266 v -39.18945 c 0,-13.34468 -12.77453,-24.08984 -28.64257,-24.08984 -15.86805,0 -28.64258,10.74516 -28.64258,24.08984 v 10.11307 15.83008 c 0,13.34464 -12.77454,24.08789 -28.64258,24.08789 -15.86804,0 -28.64258,-10.74325 -28.64258,-24.08789 v -15.83008 -10.11307 c 0,-13.34468 -12.77453,-24.08984 -28.64258,-24.08984 -15.86804,0 -28.64257,10.74516 -28.64257,24.08984 v 10.11307 15.83008 c 0,13.34464 -12.77454,24.08789 -28.64258,24.08789 -15.86808,0 -28.64258,-10.74325 -28.64258,-24.08789 v -15.83008 -10.11307 c 0,-13.34468 -12.77453,-24.08984 -28.64258,-24.08984 z"
       transform="scale(0.26458333)"
       id="rect4529"
       inkscape:connector-curvature="0"
       sodipodi:nodetypes="sscccssscssscssscssscss" />
    <rect
       style="fill:#ecffff;fill-opacity:1;stroke:none;stroke-width:2.5;stroke-miterlimit:4;stroke-dasharray:none;stroke-opacity:1"
       id="rect4588"
       width="3.0621221"
       height="14.03474"
       x="-116.09338"
       y="1.8155499"
       ry="1.5310611"
       transform="rotate(-115.72156)" />
    <rect
       transform="rotate(-37.27656)"
       ry="1.5310611"
       y="113.97967"
       x="2.0105605"
       height="14.03474"
       width="3.0621221"
       id="rect4599"
       style="fill:#ecffff;fill-opacity:1;stroke:none;stroke-width:2.5;stroke-miterlimit:4;stroke-dasharray:none;stroke-opacity:1" />
    <rect
       transform="rotate(161.70476)"
       ry="1.5310611"
       y="-161.93375"
       x="-108.78143"
       height="14.03474"
       width="3.0621221"
       id="rect4601"
       style="fill:#ecffff;fill-opacity:1;stroke:none;stroke-width:2.5;stroke-miterlimit:4;stroke-dasharray:none;stroke-opacity:1" />
    <g
       id="g4727"
       transform="translate(2.3368746,-3.0674362)">
      <path
         d="m 72.875957,53.273493 c -4.719586,0.820831 -8.654561,4.873889 -7.930297,9.03823 0.423825,2.436891 2.164674,3.309983 4.63243,2.88079 -0.630351,-0.335278 -1.655011,-1.11046 -2.030558,-3.269753 -0.515031,-2.961316 0.729563,-5.307028 3.449451,-6.479246 l 3.894932,22.394901 c 0.498936,2.868761 -0.80333,4.334686 -2.376525,4.6083 -1.449806,0.252151 -3.163834,-0.466718 -3.458905,-2.163298 -0.262883,-1.511512 0.517673,-2.505329 1.597316,-2.6931 0.586095,-0.101937 1.276799,0.03216 1.923249,0.460012 -0.02681,-0.154116 -0.0228,-0.313831 -0.04427,-0.43721 -0.321894,-1.850822 -1.396175,-2.363137 -3.061911,-2.07343 -2.776226,0.482844 -3.2188,2.689067 -2.913002,4.447337 0.461386,2.65285 2.383297,4.384287 6.362558,3.692211 4.84297,-0.842292 5.844806,-4.03562 5.029338,-8.72436 l -3.80909,-21.901345 z"
         style="font-style:normal;font-variant:normal;font-weight:normal;font-stretch:normal;font-size:14.11111069px;line-height:1.25;font-family:'Lobster Two';-inkscape-font-specification:'Lobster Two';letter-spacing:0px;word-spacing:0px;fill:#ffffff;fill-opacity:1;stroke:none;stroke-width:0.58706278"
         id="path4650"
         inkscape:connector-curvature="0" />
      <path
         d="m 85.651878,68.323524 -1.195264,5.913647 c -0.256927,1.271163 -1.142771,1.85912 -1.842831,1.717623 -0.644791,-0.130329 -1.01227,-0.683969 -0.770235,-1.881448 l 1.266011,-6.263673 -1.842261,-0.372356 -1.306971,6.466332 c -0.424485,2.100168 0.583472,3.090085 2.020434,3.380522 0.829016,0.16756 1.766016,-0.199132 2.468615,-1.30352 0.0017,0.939948 0.313198,1.865779 1.436975,2.092916 0.810597,0.163838 2.075089,0.07427 3.249604,-2.89061 l -0.681638,-0.137773 c -0.544434,1.270574 -1.14277,1.85912 -1.732296,1.739965 -0.79217,-0.160114 -0.590707,-1.346605 -0.493895,-1.825594 l 1.26601,-6.263673 z"
         style="font-style:normal;font-variant:normal;font-weight:normal;font-stretch:normal;font-size:14.11111069px;line-height:1.25;font-family:'Lobster Two';-inkscape-font-specification:'Lobster Two';letter-spacing:0px;word-spacing:0px;fill:#ffffff;fill-opacity:1;stroke:none;stroke-width:0.35240877"
         id="path4652"
         inkscape:connector-curvature="0" />
      <path
         d="m 94.752744,66.42948 0.155836,1.127074 c -0.5793,-0.901001 -1.604462,-1.046343 -2.355836,-0.942408 -3.193364,0.441716 -3.964364,4.209655 -3.577849,7.003842 0.522873,3.780382 2.824572,4.849933 4.726498,4.586841 1.127077,-0.155838 1.96161,-0.869597 2.434944,-1.772617 l 0.279396,2.019308 c -1.438542,0.8451 -2.845344,2.092619 -2.621232,3.712785 0.175453,1.267942 1.257531,2.171177 2.807248,1.956805 1.57319,-0.217695 2.78566,-1.486106 2.379666,-4.421183 l -0.207888,-1.502753 c 2.002063,-0.923047 2.954013,-1.652981 2.985883,-5.055437 l -0.86878,0.120239 c 0.035,2.675304 -0.70881,3.35251 -2.234032,4.089956 L 97.100784,66.104754 Z m -0.711122,9.909608 c -1.361869,0.188427 -2.276397,-0.714101 -2.623939,-3.226523 -0.289042,-2.089759 0.09277,-5.038099 2.112105,-5.317429 0.704415,-0.09744 1.245487,0.35418 1.525019,0.818033 l 0.691827,5.00137 c 0.191585,1.38535 -0.765796,2.594628 -1.705016,2.724549 z m 1.945095,6.622742 c -0.704414,0.09747 -1.192024,-0.313704 -1.289468,-1.018113 -0.120238,-0.868789 0.396125,-1.634181 1.848402,-2.552961 l 0.227345,1.643645 c 0.152679,1.10358 0.05899,1.810503 -0.786294,1.92743 z"
         style="font-style:normal;font-variant:normal;font-weight:normal;font-stretch:normal;font-size:14.11111069px;line-height:1.25;font-family:'Lobster Two';-inkscape-font-specification:'Lobster Two';letter-spacing:0px;word-spacing:0px;fill:#ffffff;fill-opacity:1;stroke:none;stroke-width:0.444453"
         id="path4654"
         inkscape:connector-curvature="0" />
      <path
         d="m 107.4399,67.568068 -0.12723,0.855126 c -0.22981,-0.780791 -0.94624,-1.105896 -1.51632,-1.190718 -2.42286,-0.360487 -3.79043,2.222094 -4.10585,4.342093 -0.42676,2.86824 1.02286,4.140083 2.46589,4.354786 0.85512,0.127231 1.61618,-0.214779 2.15434,-0.772039 l -0.22796,1.532094 c -1.22955,0.308724 -2.52197,0.917643 -2.70487,2.146891 -0.14314,0.962017 0.45283,1.851911 1.62864,2.026853 1.1936,0.177594 2.34882,-0.488161 2.68016,-2.715058 l 0.16963,-1.140167 c 1.65711,-0.245099 2.50725,-0.573853 3.25776,-3.047941 l -0.65916,-0.09808 c -0.54628,1.958193 -1.23343,2.292976 -2.50318,2.504671 l 1.26966,-8.53345 z m -2.63668,7.073595 c -1.03329,-0.153737 -1.5072,-1.007263 -1.22358,-2.913485 0.2359,-1.585535 1.14453,-3.653704 2.67663,-3.425747 0.53446,0.07952 0.83245,0.524472 0.93713,0.922442 l -0.5646,3.794631 c -0.15639,1.051085 -1.11297,1.728185 -1.82558,1.622159 z m 0.003,5.24474 c -0.53446,-0.07952 -0.80211,-0.483531 -0.7226,-1.017981 0.0981,-0.659171 0.63814,-1.106892 1.89346,-1.466398 l -0.18554,1.247061 c -0.1246,0.837309 -0.34398,1.332741 -0.98532,1.237318 z"
         style="font-style:normal;font-variant:normal;font-weight:normal;font-stretch:normal;font-size:14.11111069px;line-height:1.25;font-family:'Lobster Two';-inkscape-font-specification:'Lobster Two';letter-spacing:0px;word-spacing:0px;fill:#ffffff;fill-opacity:1;stroke:none;stroke-width:0.33771095"
         id="path4656"
         inkscape:connector-curvature="0" />
      <path
         d="m 111.14023,58.746029 1.26458,15.465268 c 0.15026,1.837735 0.78458,4.044409 2.58195,3.823757 0.85964,-0.105529 2.08791,-0.770332 2.28792,-5.563867 l -0.72285,0.08874 c -0.12669,2.071607 -0.52959,3.177636 -1.15463,3.254427 -0.84009,0.103155 -1.02713,-1.701536 -1.08725,-2.436638 l -1.2484,-15.267362 z"
         style="font-style:normal;font-variant:normal;font-weight:normal;font-stretch:normal;font-size:14.11111069px;line-height:1.25;font-family:'Lobster Two';-inkscape-font-specification:'Lobster Two';letter-spacing:0px;word-spacing:0px;fill:#ffffff;fill-opacity:1;stroke:none;stroke-width:0.44287649"
         id="path4658"
         inkscape:connector-curvature="0" />
      <path
         d="m 119.05963,69.112346 -0.72496,5.902868 c -0.13051,1.062838 0.085,2.417141 1.58924,2.601891 0.71949,0.08836 1.81845,-0.07542 2.64438,-2.745884 l -0.60502,-0.0743 c -0.38986,1.147177 -0.87293,1.701979 -1.39619,1.63772 -0.70311,-0.08636 -0.60728,-1.136859 -0.5551,-1.561999 l 0.68279,-5.559476 z m -0.005,-2.39075 c -0.0742,0.605019 0.34165,1.137428 0.94666,1.211728 0.58865,0.0723 1.15376,-0.339643 1.22808,-0.944646 0.0724,-0.588634 -0.37236,-1.157805 -0.96102,-1.230096 -0.60499,-0.07431 -1.14144,0.37436 -1.21372,0.963014 z"
         style="font-style:normal;font-variant:normal;font-weight:normal;font-stretch:normal;font-size:14.11111069px;line-height:1.25;font-family:'Lobster Two';-inkscape-font-specification:'Lobster Two';letter-spacing:0px;word-spacing:0px;fill:#ffffff;fill-opacity:1;stroke:none;stroke-width:0.30889276"
         id="path4660"
         inkscape:connector-curvature="0" />
      <path
         d="m 122.39252,66.102709 1.89244,11.830523 2.36612,-0.378486 -1.21116,-7.57153 c 0.15435,-1.917481 0.74683,-2.764527 1.71693,-2.919709 0.80448,-0.128688 1.59757,0.278322 1.92308,2.313163 0.10232,0.638849 0.49302,3.536851 0.58764,4.128381 0.30656,1.916548 1.35989,3.495241 3.34741,3.177314 0.99376,-0.158958 2.46362,-0.830879 2.54137,-4.89583 l -0.87545,0.140041 c -0.091,1.858806 -0.55754,2.734231 -1.29105,2.851562 -1.04109,0.166532 -1.31076,-1.367645 -1.39025,-1.864522 -0.1968,-1.23038 -0.32352,-2.933034 -0.50139,-4.045099 -0.29145,-1.821909 -1.05608,-4.174775 -3.91906,-3.716807 -0.80449,0.128686 -1.88626,0.495864 -2.53274,2.37073 l -0.28767,-1.798235 z"
         style="font-style:normal;font-variant:normal;font-weight:normal;font-stretch:normal;font-size:14.11111069px;line-height:1.25;font-family:'Lobster Two';-inkscape-font-specification:'Lobster Two';letter-spacing:0px;word-spacing:0px;fill:#ffffff;fill-opacity:1;stroke:none;stroke-width:0.44928494"
         id="path4662"
         inkscape:connector-curvature="0" />
      <path
         d="m 142.66462,68.86788 -0.33088,0.815039 c -0.0399,-0.827163 -0.67044,-1.320446 -1.21378,-1.541032 -2.30932,-0.937513 -4.28092,1.288193 -5.10124,3.308817 -1.10985,2.733793 0.0185,4.339054 1.39392,4.897422 0.81505,0.330889 1.6496,0.175226 2.31537,-0.246741 l -0.59283,1.460279 c -1.28982,0.0104 -2.71382,0.302544 -3.18947,1.474172 -0.37224,0.916924 0.004,1.939788 1.12433,2.394755 1.13767,0.461858 2.43961,0.0806 3.30129,-2.041913 l 3.9913,-9.831456 z m -4.30357,6.362091 c -0.98484,-0.399817 -1.24877,-1.357448 -0.51116,-3.174317 0.61349,-1.511215 2.00795,-3.338325 3.46823,-2.745493 0.50942,0.206807 0.69736,0.718243 0.70541,1.13686 l -1.4683,3.616761 c -0.40671,1.001816 -1.51498,1.441929 -2.19418,1.166189 z m -1.25516,5.186678 c -0.5094,-0.206801 -0.67717,-0.670483 -0.47038,-1.179881 0.25506,-0.628271 0.89645,-0.941461 2.22394,-0.995894 l -0.48255,1.188607 c -0.32397,0.798061 -0.65974,1.235332 -1.27101,0.987168 z"
         style="font-style:normal;font-variant:normal;font-weight:normal;font-stretch:normal;font-size:14.11111069px;line-height:1.25;font-family:'Lobster Two';-inkscape-font-specification:'Lobster Two';letter-spacing:0px;word-spacing:0px;fill:#ffffff;fill-opacity:1;stroke:none;stroke-width:0.34361243"
         id="path4664"
         inkscape:connector-curvature="0" />
    </g>
    <g
       id="g4735"
       style="fill:#ffffff;fill-opacity:1"
       transform="translate(0.79115008)">
      <path
         d="m 78.017017,105.26506 -3.769844,20.48242 3.451018,0.63517 0.264654,-1.43792 c 1.458305,1.58987 2.790366,2.42968 4.068522,2.66494 3.546876,0.65281 7.25845,-4.97402 8.369995,-11.0133 1.140948,-6.19904 -0.655308,-12.7735 -8.80354,-14.2732 -5.751694,-1.05861 -10.750228,1.68842 -11.479496,5.65069 -0.517545,2.81194 0.880188,4.19242 3.46845,4.66879 -0.446569,-0.44558 -1.539858,-1.50575 -1.08701,-3.96618 0.764556,-4.15401 4.572561,-5.99691 8.438976,-5.28529 5.559971,1.02333 7.106882,4.64469 5.65423,12.53728 -0.852778,4.63334 -3.060939,9.81003 -6.352188,9.20426 -0.67103,-0.1235 -1.396747,-0.48837 -2.083857,-1.24248 l 3.399324,-18.46931 z"
         style="font-style:normal;font-variant:normal;font-weight:normal;font-stretch:normal;font-size:14.11111069px;line-height:1.25;font-family:'Lobster Two';-inkscape-font-specification:'Lobster Two';letter-spacing:0px;word-spacing:0px;fill:#ffffff;fill-opacity:1;stroke:none;stroke-width:0.60919815"
         id="path4666"
         inkscape:connector-curvature="0" />
      <path
         d="m 94.534879,113.90841 c -2.993586,0.39355 -3.469268,3.72473 -3.162305,6.05974 0.451261,3.43264 2.567124,4.39293 4.343312,4.15943 2.155391,-0.28334 3.152961,-2.42442 2.72269,-5.69741 -0.03673,-0.2794 -0.09338,-0.55619 -0.127484,-0.81563 1.191174,-0.35962 2.432268,-1.11153 2.838328,-2.03791 l -0.37019,-0.49949 c -0.56938,0.76513 -1.479068,1.41258 -2.576738,1.55688 l -0.11979,0.0157 c -0.49294,-1.7421 -1.452301,-3.01683 -3.547819,-2.74135 z m 1.340842,8.65519 c -0.898078,0.11805 -2.017178,-0.36419 -2.35825,-2.95864 -0.257112,-1.9558 0.02415,-4.44935 1.680596,-4.66712 0.598718,-0.0787 1.159581,0.1724 1.599592,1.04846 -0.516275,0.0881 -0.766805,0.34443 -0.685472,0.96311 0.0892,0.67855 0.445242,0.91597 1.208879,0.85619 0.0409,0.15704 0.06189,0.31669 0.08288,0.47636 0.333199,2.53457 -0.131252,4.09799 -1.528266,4.28164 z"
         style="font-style:normal;font-variant:normal;font-weight:normal;font-stretch:normal;font-size:14.11111069px;line-height:1.25;font-family:'Lobster Two';-inkscape-font-specification:'Lobster Two';letter-spacing:0px;word-spacing:0px;fill:#ffffff;fill-opacity:1;stroke:none;stroke-width:0.37741894"
         id="path4668"
         inkscape:connector-curvature="0" />
      <path
         d="m 101.80186,113.67029 -0.77383,10.55087 2.11018,0.15477 0.49525,-6.75256 c 0.52165,-1.61653 1.20269,-2.22427 2.06786,-2.16081 0.71746,0.0526 1.31646,0.56329 1.18336,2.37803 -0.0418,0.56975 -0.29386,3.13954 -0.33256,3.66709 -0.12536,1.70924 0.45957,3.27965 2.23212,3.40964 0.88628,0.065 2.28575,-0.21422 3.17726,-3.69181 l -0.78077,-0.0572 c -0.45525,1.57898 -1.03386,2.23664 -1.68802,2.18866 -0.92848,-0.0681 -0.84899,-1.44126 -0.81648,-1.88439 0.0805,-1.09729 0.31702,-2.58623 0.38976,-3.57802 0.11917,-1.62484 -0.0606,-3.80197 -2.61391,-3.98924 -0.71746,-0.0527 -1.72162,0.0434 -2.65757,1.52352 l 0.11762,-1.60373 z"
         style="font-style:normal;font-variant:normal;font-weight:normal;font-stretch:normal;font-size:14.11111069px;line-height:1.25;font-family:'Lobster Two';-inkscape-font-specification:'Lobster Two';letter-spacing:0px;word-spacing:0px;fill:#ffffff;fill-opacity:1;stroke:none;stroke-width:0.39672118"
         id="path4670"
         inkscape:connector-curvature="0" />
      <path
         d="m 117.03908,111.68869 1.09574,8.689 c 0.23553,1.86774 -0.71068,3.08702 -1.73928,3.21674 -0.94741,0.11948 -1.70944,-0.47188 -1.93132,-2.23136 l -1.16061,-9.20332 -2.70688,0.34136 1.19815,9.50108 c 0.38915,3.0858 2.23443,3.98058 4.34579,3.71433 1.21809,-0.15361 2.33718,-1.09221 2.79202,-2.93702 0.43795,1.29224 1.29535,2.42157 2.94653,2.21334 1.19102,-0.15019 2.88904,-0.8593 3.13102,-5.48218 l -1.00153,0.1263 c -0.16026,2.00015 -0.71069,3.08702 -1.57688,3.19625 -1.16394,0.14679 -1.43654,-1.57877 -1.52529,-2.28257 l -1.16061,-9.20331 z"
         style="font-style:normal;font-variant:normal;font-weight:normal;font-stretch:normal;font-size:14.11111069px;line-height:1.25;font-family:'Lobster Two';-inkscape-font-specification:'Lobster Two';letter-spacing:0px;word-spacing:0px;fill:#ffffff;fill-opacity:1;stroke:none;stroke-width:0.51155639"
         id="path4672"
         inkscape:connector-curvature="0" />
      <path
         d="m 126.96256,112.99752 -0.34446,2.65211 -0.65341,-0.0849 -0.0874,0.67262 0.65341,0.0849 -0.81372,6.26512 c -0.16473,1.26839 0.0609,2.84155 1.90581,3.08117 0.88403,0.11481 2.19737,-0.0664 3.45981,-3.16598 l -0.71106,-0.0923 c -0.54738,1.3555 -1.30986,1.95999 -2.00171,1.87013 -0.86482,-0.11232 -0.756,-1.25118 -0.67862,-1.84695 l 0.7613,-5.86154 1.4798,0.1922 0.0874,-0.67262 -1.4798,-0.1922 0.3794,-2.92116 z"
         style="font-style:normal;font-variant:normal;font-weight:normal;font-stretch:normal;font-size:14.11111069px;line-height:1.25;font-family:'Lobster Two';-inkscape-font-specification:'Lobster Two';letter-spacing:0px;word-spacing:0px;fill:#ffffff;fill-opacity:1;stroke:none;stroke-width:0.36336669"
         id="path4674"
         inkscape:connector-curvature="0" />
      <path
         d="m 131.91049,112.77111 c 0.3504,2.39294 0.0165,4.98381 -0.22224,7.55067 -0.41004,0.38194 -0.6288,1.12076 -0.41863,1.95393 0.3903,1.54734 1.65044,3.33101 4.43562,2.62846 1.3569,-0.34227 3.47962,-1.7639 2.88516,-4.1206 -0.63049,-2.49952 -1.32898,-3.36143 -4.3957,-9.09502 z m 4.09053,8.38711 c 0.29422,1.16643 -0.24621,1.83446 -1.24604,2.08666 -1.04742,0.26421 -1.85227,-0.21641 -2.37254,-1.27519 0.25049,0.19001 0.48875,0.2312 0.7268,0.17115 0.38088,-0.0961 0.67768,-0.52543 0.52757,-1.12055 -0.1321,-0.5237 -0.45422,-0.79693 -0.78791,-0.91531 0.0438,-1.83404 0.36161,-3.58533 0.10769,-5.39493 1.92561,3.91988 2.55205,4.49616 3.04443,6.44817 z"
         style="font-style:normal;font-variant:normal;font-weight:normal;font-stretch:normal;font-size:14.11111069px;line-height:1.25;font-family:'Lobster Two';-inkscape-font-specification:'Lobster Two';letter-spacing:0px;word-spacing:0px;fill:#ffffff;fill-opacity:1;stroke:none;stroke-width:0.4603245"
         id="path4676"
         inkscape:connector-curvature="0" />
    </g>
    <rect
       transform="rotate(166.48884)"
       ry="1.5310611"
       y="-124.48742"
       x="-106.38611"
       height="14.03474"
       width="3.0621221"
       id="rect4705"
       style="fill:#ecffff;fill-opacity:1;stroke:none;stroke-width:2.5;stroke-miterlimit:4;stroke-dasharray:none;stroke-opacity:1" />
    <rect
       style="fill:#ecffff;fill-opacity:1;stroke:none;stroke-width:2.5;stroke-miterlimit:4;stroke-dasharray:none;stroke-opacity:1"
       id="rect4707"
       width="3.0621221"
       height="14.03474"
       x="-168.15308"
       y="54.744061"
       ry="1.5310611"
       transform="rotate(-127.95685)" />
    <rect
       transform="rotate(-174.76915)"
       ry="1.5310611"
       y="-123.42484"
       x="-75.361473"
       height="14.03474"
       width="3.0621221"
       id="rect4709"
       style="fill:#ecffff;fill-opacity:1;stroke:none;stroke-width:2.5;stroke-miterlimit:4;stroke-dasharray:none;stroke-opacity:1" />
    <path
       style="fill:#741157;fill-opacity:0.18181817;stroke:none;stroke-width:9.44881916;stroke-miterlimit:4;stroke-dasharray:none;stroke-opacity:1"
       d="m 476.31055,148.16211 c 71.25295,41.58391 115.11008,117.83434 115.22656,200.33398 -6e-4,128.31503 -104.02091,232.33446 -232.33594,232.33399 -25.70989,-0.094 -51.2259,-4.45467 -75.50781,-12.9043 35.50988,20.85698 75.92544,31.90067 117.10742,32 128.31503,4.7e-4 232.33533,-104.01895 232.33594,-232.33398 -0.12494,-99.10504 -63.10104,-187.2206 -156.82617,-219.42969 z"
       transform="scale(0.26458333)"
       id="path4737"
       inkscape:connector-curvature="0"
       sodipodi:nodetypes="ccccccc" />
  </g>
</svg>
